<?xml version="1.0" encoding="UTF-8"?>
<svg id="Layer_2" data-name="Layer 2" xmlns="http://www.w3.org/2000/svg" viewBox="0 0 605.4 621.79">
  <defs>
    <style>
      .cls-1 {
        fill: #fb0;
      }

      .cls-2 {
        fill: #ffea80;
      }

      .cls-3 {
        fill: #8434cb;
      }

      .cls-4 {
        fill: #e95c3b;
      }

      .cls-5 {
        fill: #ffc248;
      }
    </style>
  </defs>
  <g id="Layer_1-2" data-name="Layer 1">
    <path d="M605.4,370.75c-.67,29.11-11.55,50.15-32.29,66.25-15.89,12.34-31.67,24.81-47.53,37.18-10.34,8.06-20.83,15.94-31.12,24.07-27.57,21.79-55.14,43.6-82.57,65.57-11.27,9.03-23.15,16.73-37.42,20-12.86,2.94-25.76,3.4-38.4-.83-4.76-1.6-8.02-1.14-11.41,2.79-7.07,8.19-14.43,16.14-21.93,23.94-11.08,11.52-24.6,14.18-39.84,10.61-16.33-3.83-32.73-7.33-49.09-11.06-14.25-3.25-28.45-6.71-42.71-9.93-14.91-3.37-29.88-6.44-44.76-9.9-16.17-3.76-32.45-7.2-48.32-11.99-9.57-2.89-16.52-10.48-19.8-19.91-6.1-17.56-11.16-35.48-16.76-53.22-4.75-15.04-9.76-30-14.44-45.06-4.63-14.91-8.9-29.93-13.5-44.85-3.23-10.47-6.67-20.87-10.15-31.26-5.69-16.98-4.94-32.56,8.28-46.32,13.61-14.17,26.65-28.87,40.04-43.25,3.2-3.44,4.33-7.07,3.6-11.81-3.03-19.58-6.23-39.16-8.5-58.84-3.69-31.95,8.69-56.93,33.99-76.26,23.25-17.77,46.09-36.07,69.12-54.14,28.38-22.27,56.7-44.63,85.2-66.74,7.98-6.19,16.24-12.11,24.88-17.32C271.7,1.35,284.9-.28,298.4,.04c14.81,.34,28.04,6.19,41.39,11.75,11.32,4.71,22.76,9.15,34.15,13.7,11.54,4.61,23.08,9.21,34.63,13.82,12.15,4.85,24.32,9.68,36.46,14.58,11.68,4.71,23.3,9.54,34.98,14.25,11.21,4.52,22.35,9.28,33.72,13.37,20.34,7.32,38.74,17.35,49.39,37.12,4.42,8.2,8.12,17.29,9.77,26.4,4.33,23.91,7.45,48.05,10.88,72.12,3.3,23.08,6.32,46.2,9.6,69.28,1.99,14.01,4.33,27.97,6.33,41.98,2.14,14.99,4.06,30,5.71,42.34ZM83.21,195.11c1.46,.65,2.34,1.08,3.25,1.44,29.35,11.66,58.68,23.37,88.08,34.91,3.42,1.34,4.64,2.82,3.55,6.59-.76,2.62-.74,5.65-.37,8.4,1.64,12.02,3.61,24,5.33,36.01,3.23,22.54,6.08,45.14,9.63,67.63,2.24,14.16,2.87,28.78,9.37,41.16-26.95,21.15-53.73,42.16-80.84,63.44,.89,1.1,1.58,2.6,2.74,3.29,7.81,4.62,15.34,10.01,23.66,13.4,45.34,18.48,90.88,36.47,136.37,54.59,19.12,7.62,38.23,15.29,57.45,22.66,6.3,2.41,12.9,4.27,20.11,2.48-1.56-10.76-3.1-21.26-4.6-31.77-2.9-20.27-5.71-40.54-8.73-60.79-.49-3.27-1.88-6.4-2.82-9.5,7.7-1.15,13.06-4.25,25.56-14.18,23.83-18.93,47.95-37.52,71.64-56.63,10.66-8.6,22.92-15.64,29.62-27.88,32.04,12.91,63.86,25.73,95.97,38.67,3.29-7.59,3.24-15.4,2.19-23.11-3.72-27.15-7.68-54.27-11.61-81.39-6.27-43.23-12.61-86.44-18.88-129.67-1.84-12.71-6.68-23.63-17.91-30.83-1.37-.88-2.95-1.43-4.85-2.34,.11,1.27,0,1.76,.18,1.89,2.13,1.57,4.26,3.15,6.47,4.61,5.1,3.36,5.29,5.68,.57,9.41-15.67,12.39-31.36,24.74-47.05,37.09-9.21,7.24-18.45,14.45-26.99,21.13-3.94-2.66-7.34-5.64-11.28-7.47-10.54-4.91-21.18-9.67-32-13.89-34.47-13.44-68.34-28.48-103.7-40.07-4.8-33.19-9.67-66.86-14.8-102.32-7.91,4.07-15.32,6.61-21.22,11.12-28.03,21.41-55.69,43.32-83.42,65.13-28.91,22.73-57.81,45.47-86.57,68.4-5.96,4.75-11.08,10.47-14.07,18.41Z"/>
    <g>
      <path class="cls-1" d="M567.52,389.38c-2.6,8.07-7.57,14.54-14.1,19.71-19.15,15.17-38.43,30.17-57.65,45.25-26.06,20.45-52.07,40.96-78.18,61.35-7.67,5.99-15.91,11.29-23.3,17.59-6.07,5.17-12.25,10.03-19.11,14.1-3.93,2.33-7.89,3.95-12.5,3.62-.96-2.24-1.79-4.44-2.07-6.95-1.05-9.18-1.99-18.41-3.7-27.48-2.41-12.79-4.39-25.65-6.22-38.53-1.41-9.96-2.69-19.93-4.03-29.9,8.49-1.25,14.69-6.77,21.05-11.71,25.13-19.53,50.2-39.15,75.05-59.03,11.05-8.84,23.58-16.27,30.64-29.33,.12,3.32,3.03,3.77,5.18,4.63,21.33,8.64,42.79,16.96,64.03,25.8,8.36,3.48,17.49,5.27,24.92,10.88Z"/>
      <path class="cls-1" d="M120.86,454.31c-7.36-8.42-9.22-18.93-10.75-29.42-7.35-50.22-14.55-100.46-21.78-150.69-2.6-18.07-5.17-36.14-7.74-54.21-.95-6.65-.64-13.26,.84-19.79,.39-1.72,.44-3.71,2.29-4.77,9.53,2.28,18.31,6.58,27.36,10.13,22.66,8.88,45.28,17.83,67.92,26.75,.48,4.82-1.88,9.45-.91,14.31,2.72,13.61,4.2,27.4,6.09,41.13,3.39,24.69,7,49.34,10.89,73.96,1.59,10.04,2.1,20.49,8.02,29.39-3.79,2.6-7.69,5.06-11.36,7.81-17.84,13.36-34.7,27.98-52.81,41.01-6.24,4.49-12.05,9.58-18.06,14.4Z"/>
      <path class="cls-1" d="M288.66,33.95c11.36-1.75,21.7,2.12,31.87,6.17,61.17,24.37,122.3,48.86,183.41,73.41,10.31,4.15,20.59,8.56,27.46,18.04-2.53,.27-3.06,2.84-4.71,4.14-21.06,16.54-42.18,33.01-63.01,49.83-4.77,3.85-10.94,6.15-14.08,11.94-1.42-3.82-4.27-6.21-7.86-7.86-6.63-3.05-13.13-6.39-19.89-9.11-28.73-11.59-57.48-23.14-86.34-34.39-10.74-4.19-21.1-9.8-32.98-10.51,.04-1.49,.3-3.01,.1-4.46-1.74-12.46-3.49-24.92-5.39-37.35-3.05-19.92-6.41-39.8-8.57-59.85Z"/>
      <path class="cls-4" d="M449.59,197.48c3.13-5.79,9.31-8.09,14.08-11.94,20.84-16.82,41.95-33.29,63.01-49.83,1.66-1.3,2.18-3.87,4.71-4.14,6.31,8.3,8.53,18.07,9.96,28.08,6.1,42.59,12.09,85.19,18.24,127.77,3.63,25.15,7.59,50.25,11.18,75.41,1.18,8.24,1.55,16.56-1.33,24.66-.37,1.03-.69,1.86-1.92,1.89-7.43-5.61-16.56-7.4-24.92-10.88-21.24-8.84-42.7-17.16-64.03-25.8-2.14-.87-5.05-1.32-5.17-4.63-.23-21.13-6.14-41.48-8.44-62.34-1.99-18.06-4.8-36.04-7.54-54-1.76-11.58-2.96-23.34-7.82-34.23Z"/>
      <path class="cls-4" d="M120.86,454.31c6.01-4.82,11.82-9.9,18.06-14.4,18.11-13.03,34.97-27.64,52.81-41.01,3.67-2.75,7.57-5.21,11.36-7.81,1.46,.78,2.89,1.64,4.39,2.33,17.03,7.77,33.64,16.54,51.77,21.7,7.6,2.16,14.29,6.45,21.84,8.95,12.24,4.04,23.97,9.58,36.04,14.14,9.71,3.67,19.05,8.53,29.53,9.92,1.34,9.97,2.62,19.94,4.03,29.9,1.83,12.88,3.81,25.73,6.22,38.53,1.71,9.07,2.65,18.29,3.7,27.48,.29,2.51,1.11,4.72,2.07,6.95-.5,.12-1,.25-1.49,.37-.6-.31-1.12-.19-1.55,.32-8.98,.6-17.26-2.17-25.38-5.43-35.69-14.31-71.31-28.79-107.02-43.05-28.93-11.56-58.02-22.73-86.89-34.44-7.56-3.07-14.87-7.09-19.47-14.45Z"/>
      <path class="cls-2" d="M288.66,33.95c2.16,20.05,5.52,39.93,8.57,59.85,1.9,12.44,3.65,24.89,5.39,37.35,.2,1.45-.06,2.97-.1,4.46-.81,.14-1.66,.17-2.43,.44-7.52,2.59-13.1,7.99-19.35,12.6-11.53,8.5-22.58,17.57-33.88,26.34-8.54,6.63-16.87,13.55-25.62,19.94-9,6.56-17.44,13.89-26.5,20.41-6.34,4.57-12.08,9.85-15.75,16.97-22.64-8.92-45.26-17.87-67.92-26.75-9.06-3.55-17.83-7.85-27.36-10.13,1.79-8.33,7.7-13.88,13.8-18.84,17.51-14.27,35.35-28.12,53.11-42.09,37.33-29.37,74.68-58.72,112.06-88.04,6.15-4.82,12.73-8.94,20.19-11.53,1.92-.67,3.77-1.21,5.8-.98Z"/>
      <path class="cls-3" d="M359.63,551.68c.43-.51,.95-.62,1.55-.32-.52,.11-1.03,.21-1.55,.32Z"/>
      <path class="cls-5" d="M178.99,232.31c3.67-7.12,9.41-12.4,15.75-16.97,9.06-6.53,17.51-13.85,26.5-20.41,8.76-6.39,17.08-13.3,25.62-19.94,11.3-8.77,22.35-17.83,33.88-26.34,6.25-4.61,11.84-10.02,19.35-12.6,.77-.26,1.62-.3,2.43-.44,11.88,.71,22.23,6.33,32.98,10.51,28.87,11.24,57.61,22.8,86.34,34.39,6.76,2.72,13.26,6.06,19.89,9.11,3.59,1.65,6.44,4.04,7.86,7.86,4.86,10.9,6.05,22.65,7.82,34.23,2.74,17.97,5.55,35.95,7.54,54,2.3,20.86,8.21,41.22,8.44,62.34-7.06,13.06-19.58,20.49-30.64,29.33-24.86,19.88-49.92,39.5-75.05,59.03-6.36,4.94-12.57,10.46-21.05,11.71-10.48-1.39-19.82-6.26-29.53-9.92-12.08-4.56-23.81-10.1-36.04-14.14-7.54-2.49-14.23-6.78-21.84-8.95-18.12-5.15-34.74-13.92-51.77-21.7-1.51-.69-2.93-1.55-4.39-2.33-5.92-8.91-6.43-19.36-8.02-29.39-3.89-24.61-7.5-49.27-10.89-73.96-1.89-13.74-3.36-27.53-6.09-41.13-.97-4.86,1.39-9.49,.91-14.31Z"/>
    </g>
  </g>
</svg>